<svg xmlns="http://www.w3.org/2000/svg" width="1260" height="774"><path d="M60 179 V117 H122" fill="none" stroke="#C9AE72" stroke-width="1.4"/><path d="M66 163 V123 H106" fill="none" stroke="#C9AE72" stroke-width="0.9"/><polygon points="85.54,139.30 81.84,138.84 82.30,142.54 80.00,139.60 77.70,142.54 78.16,138.84 74.46,139.30 77.40,137.00 74.46,134.70 78.16,135.16 77.70,131.46 80.00,134.40 82.30,131.46 81.84,135.16 85.54,134.70 82.60,137.00" fill="#C9AE72"/><path d="M1200 179 V117 H1138" fill="none" stroke="#C9AE72" stroke-width="1.4"/><path d="M1194 163 V123 H1154" fill="none" stroke="#C9AE72" stroke-width="0.9"/><polygon points="1185.54,139.30 1181.84,138.84 1182.30,142.54 1180.00,139.60 1177.70,142.54 1178.16,138.84 1174.46,139.30 1177.40,137.00 1174.46,134.70 1178.16,135.16 1177.70,131.46 1180.00,134.40 1182.30,131.46 1181.84,135.16 1185.54,134.70 1182.60,137.00" fill="#C9AE72"/><path d="M60 655 V717 H122" fill="none" stroke="#C9AE72" stroke-width="1.4"/><path d="M66 671 V711 H106" fill="none" stroke="#C9AE72" stroke-width="0.9"/><polygon points="85.54,699.30 81.84,698.84 82.30,702.54 80.00,699.60 77.70,702.54 78.16,698.84 74.46,699.30 77.40,697.00 74.46,694.70 78.16,695.16 77.70,691.46 80.00,694.40 82.30,691.46 81.84,695.16 85.54,694.70 82.60,697.00" fill="#C9AE72"/><path d="M1200 655 V717 H1138" fill="none" stroke="#C9AE72" stroke-width="1.4"/><path d="M1194 671 V711 H1154" fill="none" stroke="#C9AE72" stroke-width="0.9"/><polygon points="1185.54,699.30 1181.84,698.84 1182.30,702.54 1180.00,699.60 1177.70,702.54 1178.16,698.84 1174.46,699.30 1177.40,697.00 1174.46,694.70 1178.16,695.16 1177.70,691.46 1180.00,694.40 1182.30,691.46 1181.84,695.16 1185.54,694.70 1182.60,697.00" fill="#C9AE72"/></svg>