<svg xmlns="http://www.w3.org/2000/svg" width="1260" height="774"><defs><pattern id="khatam" width="64" height="64" patternUnits="userSpaceOnUse"><polygon points="52.33,40.42 42.61,42.61 40.42,52.33 32.00,47.00 23.58,52.33 21.39,42.61 11.67,40.42 17.00,32.00 11.67,23.58 21.39,21.39 23.58,11.67 32.00,17.00 40.42,11.67 42.61,21.39 52.33,23.58 47.00,32.00" fill="none" stroke="#C9AE72" stroke-width="1"/><polygon points="20.33,8.42 10.61,10.61 8.42,20.33 0.00,15.00 -8.42,20.33 -10.61,10.61 -20.33,8.42 -15.00,0.00 -20.33,-8.42 -10.61,-10.61 -8.42,-20.33 -0.00,-15.00 8.42,-20.33 10.61,-10.61 20.33,-8.42 15.00,-0.00" fill="none" stroke="#C9AE72" stroke-width="1"/><polygon points="84.33,8.42 74.61,10.61 72.42,20.33 64.00,15.00 55.58,20.33 53.39,10.61 43.67,8.42 49.00,0.00 43.67,-8.42 53.39,-10.61 55.58,-20.33 64.00,-15.00 72.42,-20.33 74.61,-10.61 84.33,-8.42 79.00,-0.00" fill="none" stroke="#C9AE72" stroke-width="1"/><polygon points="20.33,72.42 10.61,74.61 8.42,84.33 0.00,79.00 -8.42,84.33 -10.61,74.61 -20.33,72.42 -15.00,64.00 -20.33,55.58 -10.61,53.39 -8.42,43.67 -0.00,49.00 8.42,43.67 10.61,53.39 20.33,55.58 15.00,64.00" fill="none" stroke="#C9AE72" stroke-width="1"/><polygon points="84.33,72.42 74.61,74.61 72.42,84.33 64.00,79.00 55.58,84.33 53.39,74.61 43.67,72.42 49.00,64.00 43.67,55.58 53.39,53.39 55.58,43.67 64.00,49.00 72.42,43.67 74.61,53.39 84.33,55.58 79.00,64.00" fill="none" stroke="#C9AE72" stroke-width="1"/><rect x="27.0" y="27.0" width="10" height="10" transform="rotate(45 32.0 32.0)" fill="none" stroke="#C9AE72" stroke-width="0.8"/></pattern><radialGradient id="fade" cx="630" cy="400" r="640" gradientUnits="userSpaceOnUse" gradientTransform="translate(630 400) scale(1 0.62) translate(-630 -400)"><stop offset="0.42" stop-color="#fff" stop-opacity="0"/><stop offset="0.78" stop-color="#fff" stop-opacity="0.85"/><stop offset="1" stop-color="#fff" stop-opacity="1"/></radialGradient><mask id="m"><rect x="0" y="0" width="1260" height="774" fill="url(#fade)"/></mask></defs><rect x="46" y="103" width="1168" height="628" fill="url(#khatam)" mask="url(#m)" opacity="0.16"/></svg>